<mxfile host="app.diagrams.net" agent="Mozilla/5.0 (Windows NT 10.0; Win64; x64) AppleWebKit/537.36 (KHTML, like Gecko) Chrome/129.0.0.0 Safari/537.36" version="24.7.17">
  <diagram id="C5RBs43oDa-KdzZeNtuy" name="Page-1">
    <mxGraphModel dx="662" dy="343" grid="1" gridSize="10" guides="1" tooltips="1" connect="1" arrows="1" fold="1" page="1" pageScale="1" pageWidth="827" pageHeight="1169" math="0" shadow="0">
      <root>
        <mxCell id="WIyWlLk6GJQsqaUBKTNV-0" />
        <mxCell id="WIyWlLk6GJQsqaUBKTNV-1" parent="WIyWlLk6GJQsqaUBKTNV-0" />
        <mxCell id="0xpmapLkxp66fmtdaelJ-1" style="edgeStyle=orthogonalEdgeStyle;rounded=0;orthogonalLoop=1;jettySize=auto;html=1;entryX=0;entryY=0.5;entryDx=0;entryDy=0;" parent="WIyWlLk6GJQsqaUBKTNV-1" source="K9RmvqkDkaU8wMu9pPuD-0" target="K9RmvqkDkaU8wMu9pPuD-4" edge="1">
          <mxGeometry relative="1" as="geometry" />
        </mxCell>
        <mxCell id="K9RmvqkDkaU8wMu9pPuD-0" value="Start d&lt;span style=&quot;background-color: initial; font-size: 11px;&quot;&gt;ivision.s&lt;/span&gt;" style="ellipse;whiteSpace=wrap;html=1;fontSize=11;" parent="WIyWlLk6GJQsqaUBKTNV-1" vertex="1">
          <mxGeometry x="246" y="290" width="120" height="80" as="geometry" />
        </mxCell>
        <mxCell id="qwA8c6eQVYafrWKvCbjQ-1" value="NO" style="edgeStyle=orthogonalEdgeStyle;rounded=0;orthogonalLoop=1;jettySize=auto;html=1;fontSize=11;" parent="WIyWlLk6GJQsqaUBKTNV-1" source="K9RmvqkDkaU8wMu9pPuD-2" target="qwA8c6eQVYafrWKvCbjQ-0" edge="1">
          <mxGeometry relative="1" as="geometry" />
        </mxCell>
        <mxCell id="V25gpUNmVRe3hCxXy0x0-1" value="YES" style="edgeStyle=orthogonalEdgeStyle;rounded=0;orthogonalLoop=1;jettySize=auto;html=1;entryX=1;entryY=0.5;entryDx=0;entryDy=0;" parent="WIyWlLk6GJQsqaUBKTNV-1" source="K9RmvqkDkaU8wMu9pPuD-2" target="K9RmvqkDkaU8wMu9pPuD-7" edge="1">
          <mxGeometry x="-0.2245" relative="1" as="geometry">
            <mxPoint as="offset" />
          </mxGeometry>
        </mxCell>
        <mxCell id="K9RmvqkDkaU8wMu9pPuD-2" value="r2(divisor)&amp;nbsp;!= 0&amp;nbsp;" style="rhombus;whiteSpace=wrap;html=1;shadow=0;fontFamily=Helvetica;fontSize=11;align=center;strokeWidth=1;spacing=6;spacingTop=-4;" parent="WIyWlLk6GJQsqaUBKTNV-1" vertex="1">
          <mxGeometry x="499" y="360" width="113" height="80" as="geometry" />
        </mxCell>
        <mxCell id="0xpmapLkxp66fmtdaelJ-0" style="edgeStyle=orthogonalEdgeStyle;rounded=0;orthogonalLoop=1;jettySize=auto;html=1;exitX=1;exitY=0.5;exitDx=0;exitDy=0;entryX=0.5;entryY=0;entryDx=0;entryDy=0;" parent="WIyWlLk6GJQsqaUBKTNV-1" source="K9RmvqkDkaU8wMu9pPuD-4" target="K9RmvqkDkaU8wMu9pPuD-2" edge="1">
          <mxGeometry relative="1" as="geometry">
            <Array as="points">
              <mxPoint x="556" y="330" />
              <mxPoint x="556" y="340" />
              <mxPoint x="555" y="340" />
            </Array>
          </mxGeometry>
        </mxCell>
        <mxCell id="K9RmvqkDkaU8wMu9pPuD-4" value="Non-negative&amp;nbsp;&lt;div style=&quot;font-size: 11px;&quot;&gt;integer Inputs&amp;nbsp;&lt;/div&gt;&lt;div style=&quot;font-size: 11px;&quot;&gt;stored in r1(dividend)&amp;nbsp;&lt;/div&gt;&lt;div style=&quot;font-size: 11px;&quot;&gt;and r2(divisor).&lt;/div&gt;" style="shape=parallelogram;perimeter=parallelogramPerimeter;whiteSpace=wrap;html=1;fixedSize=1;fontSize=11;" parent="WIyWlLk6GJQsqaUBKTNV-1" vertex="1">
          <mxGeometry x="390" y="300" width="140" height="60" as="geometry" />
        </mxCell>
        <mxCell id="K9RmvqkDkaU8wMu9pPuD-11" style="edgeStyle=orthogonalEdgeStyle;rounded=0;orthogonalLoop=1;jettySize=auto;html=1;exitX=0.5;exitY=1;exitDx=0;exitDy=0;entryX=0.5;entryY=0;entryDx=0;entryDy=0;fontSize=11;" parent="WIyWlLk6GJQsqaUBKTNV-1" source="K9RmvqkDkaU8wMu9pPuD-7" target="K9RmvqkDkaU8wMu9pPuD-20" edge="1">
          <mxGeometry relative="1" as="geometry" />
        </mxCell>
        <mxCell id="K9RmvqkDkaU8wMu9pPuD-7" value="Keep quotient value in r3(currently the quotient is 0)&lt;div style=&quot;font-size: 11px;&quot;&gt;Keep modulo&amp;nbsp;&lt;span style=&quot;background-color: initial; font-size: 11px;&quot;&gt;value in&amp;nbsp;&lt;/span&gt;&lt;span style=&quot;background-color: initial; font-size: 11px;&quot;&gt;r4&lt;/span&gt;&lt;span style=&quot;background-color: initial; font-size: 11px;&quot;&gt;(&lt;/span&gt;&lt;span style=&quot;background-color: initial;&quot;&gt;currently the&amp;nbsp;&lt;/span&gt;modulo&amp;nbsp;&lt;span style=&quot;background-color: initial;&quot;&gt;is the&lt;/span&gt;&lt;span style=&quot;background-color: initial;&quot;&gt;&amp;nbsp;&lt;/span&gt;&lt;span style=&quot;background-color: initial;&quot;&gt;dividend&lt;/span&gt;&lt;span style=&quot;background-color: initial;&quot;&gt;).&lt;/span&gt;&lt;/div&gt;" style="rounded=1;whiteSpace=wrap;html=1;fontSize=11;glass=0;strokeWidth=1;shadow=0;" parent="WIyWlLk6GJQsqaUBKTNV-1" vertex="1">
          <mxGeometry x="150" y="375" width="310" height="50" as="geometry" />
        </mxCell>
        <mxCell id="qwA8c6eQVYafrWKvCbjQ-7" style="edgeStyle=orthogonalEdgeStyle;rounded=0;orthogonalLoop=1;jettySize=auto;html=1;exitX=0.5;exitY=1;exitDx=0;exitDy=0;entryX=0.5;entryY=0;entryDx=0;entryDy=0;" parent="WIyWlLk6GJQsqaUBKTNV-1" source="K9RmvqkDkaU8wMu9pPuD-10" target="K9RmvqkDkaU8wMu9pPuD-12" edge="1">
          <mxGeometry relative="1" as="geometry" />
        </mxCell>
        <mxCell id="K9RmvqkDkaU8wMu9pPuD-10" value="Keep modulo value in r4&lt;div style=&quot;font-size: 11px;&quot;&gt;(modulo&amp;nbsp;= dividend - divisor * num_loops).&lt;/div&gt;" style="rounded=1;whiteSpace=wrap;html=1;fontSize=11;" parent="WIyWlLk6GJQsqaUBKTNV-1" vertex="1">
          <mxGeometry x="280" y="485" width="215" height="60" as="geometry" />
        </mxCell>
        <mxCell id="K9RmvqkDkaU8wMu9pPuD-16" style="edgeStyle=orthogonalEdgeStyle;rounded=0;orthogonalLoop=1;jettySize=auto;html=1;entryX=0.5;entryY=0;entryDx=0;entryDy=0;fontSize=11;" parent="WIyWlLk6GJQsqaUBKTNV-1" source="K9RmvqkDkaU8wMu9pPuD-12" target="K9RmvqkDkaU8wMu9pPuD-14" edge="1">
          <mxGeometry relative="1" as="geometry" />
        </mxCell>
        <mxCell id="K9RmvqkDkaU8wMu9pPuD-12" value="&lt;span id=&quot;docs-internal-guid-44035d83-7fff-ea7f-9492-5141b80bd1a2&quot; style=&quot;font-size: 11px;&quot;&gt;&lt;span style=&quot;font-size: 11px; font-family: Arial, sans-serif; background-color: rgb(255, 255, 255); font-variant-numeric: normal; font-variant-east-asian: normal; font-variant-alternates: normal; font-variant-position: normal; vertical-align: baseline; white-space-collapse: preserve;&quot;&gt;Subtract the divisor(r2) from the dividend(r1), keep the difference in &lt;/span&gt;&lt;/span&gt;&lt;span style=&quot;background-color: rgb(255, 255, 255); font-family: Arial, sans-serif; font-size: 11px; white-space-collapse: preserve;&quot;&gt;r1 as the new dividend.&lt;/span&gt;" style="rounded=1;whiteSpace=wrap;html=1;fontSize=11;" parent="WIyWlLk6GJQsqaUBKTNV-1" vertex="1">
          <mxGeometry x="297.5" y="565" width="180" height="60" as="geometry" />
        </mxCell>
        <mxCell id="qwA8c6eQVYafrWKvCbjQ-5" style="edgeStyle=orthogonalEdgeStyle;rounded=0;orthogonalLoop=1;jettySize=auto;html=1;entryX=0.5;entryY=1;entryDx=0;entryDy=0;exitX=1;exitY=0.5;exitDx=0;exitDy=0;fontSize=11;" parent="WIyWlLk6GJQsqaUBKTNV-1" source="K9RmvqkDkaU8wMu9pPuD-14" target="K9RmvqkDkaU8wMu9pPuD-20" edge="1">
          <mxGeometry relative="1" as="geometry">
            <mxPoint x="510" y="665" as="sourcePoint" />
            <Array as="points">
              <mxPoint x="615" y="665" />
              <mxPoint x="615" y="560" />
            </Array>
          </mxGeometry>
        </mxCell>
        <mxCell id="K9RmvqkDkaU8wMu9pPuD-14" value="Increase the quotient(r3) by 1." style="rounded=1;whiteSpace=wrap;html=1;fontSize=11;" parent="WIyWlLk6GJQsqaUBKTNV-1" vertex="1">
          <mxGeometry x="267.5" y="650" width="240" height="30" as="geometry" />
        </mxCell>
        <mxCell id="K9RmvqkDkaU8wMu9pPuD-17" value="Here,&amp;nbsp;&lt;span id=&quot;docs-internal-guid-6fa09476-7fff-a57e-9043-292cf2e50939&quot; style=&quot;font-size: 11px;&quot;&gt;&lt;span style=&quot;font-size: 11px; font-family: Arial, sans-serif; background-color: rgb(255, 255, 255); font-variant-numeric: normal; font-variant-east-asian: normal; font-variant-alternates: normal; font-variant-position: normal; vertical-align: baseline; white-space-collapse: preserve;&quot;&gt;the quotient the really represents the number of times the divisor was subtracted from the dividend without the &lt;/span&gt;&lt;/span&gt;&lt;div style=&quot;font-size: 11px;&quot;&gt;&lt;span style=&quot;font-size: 11px;&quot;&gt;&lt;span style=&quot;font-size: 11px; font-family: Arial, sans-serif; background-color: rgb(255, 255, 255); font-variant-numeric: normal; font-variant-east-asian: normal; font-variant-alternates: normal; font-variant-position: normal; vertical-align: baseline; white-space-collapse: preserve;&quot;&gt;dividend going below zero.&lt;/span&gt;&lt;/span&gt;&lt;/div&gt;" style="shape=callout;whiteSpace=wrap;html=1;perimeter=calloutPerimeter;position2=0.94;base=29;fontSize=11;" parent="WIyWlLk6GJQsqaUBKTNV-1" vertex="1">
          <mxGeometry x="98" y="547" width="180" height="110" as="geometry" />
        </mxCell>
        <mxCell id="K9RmvqkDkaU8wMu9pPuD-19" value="" style="endArrow=none;html=1;rounded=0;exitX=0;exitY=0.25;exitDx=0;exitDy=0;entryX=0;entryY=0;entryDx=169.2;entryDy=110;entryPerimeter=0;fontSize=11;" parent="WIyWlLk6GJQsqaUBKTNV-1" source="K9RmvqkDkaU8wMu9pPuD-14" target="K9RmvqkDkaU8wMu9pPuD-17" edge="1">
          <mxGeometry width="50" height="50" relative="1" as="geometry">
            <mxPoint x="229" y="680" as="sourcePoint" />
            <mxPoint x="279" y="630" as="targetPoint" />
          </mxGeometry>
        </mxCell>
        <mxCell id="qwA8c6eQVYafrWKvCbjQ-3" value="YES" style="edgeStyle=orthogonalEdgeStyle;rounded=0;orthogonalLoop=1;jettySize=auto;html=1;entryX=1;entryY=0.5;entryDx=0;entryDy=0;fontSize=11;" parent="WIyWlLk6GJQsqaUBKTNV-1" source="K9RmvqkDkaU8wMu9pPuD-20" target="K9RmvqkDkaU8wMu9pPuD-10" edge="1">
          <mxGeometry x="-0.0625" relative="1" as="geometry">
            <mxPoint as="offset" />
          </mxGeometry>
        </mxCell>
        <mxCell id="qwA8c6eQVYafrWKvCbjQ-4" value="NO" style="edgeStyle=orthogonalEdgeStyle;rounded=0;orthogonalLoop=1;jettySize=auto;html=1;entryX=0.5;entryY=1;entryDx=0;entryDy=0;fontSize=11;exitX=1;exitY=0.5;exitDx=0;exitDy=0;" parent="WIyWlLk6GJQsqaUBKTNV-1" source="K9RmvqkDkaU8wMu9pPuD-20" target="qwA8c6eQVYafrWKvCbjQ-0" edge="1">
          <mxGeometry x="-0.6837" relative="1" as="geometry">
            <mxPoint as="offset" />
          </mxGeometry>
        </mxCell>
        <mxCell id="K9RmvqkDkaU8wMu9pPuD-20" value="r1(dividend) &amp;gt; r2(divisor)&amp;nbsp;" style="rhombus;whiteSpace=wrap;html=1;fontSize=11;" parent="WIyWlLk6GJQsqaUBKTNV-1" vertex="1">
          <mxGeometry x="540" y="470" width="149" height="90" as="geometry" />
        </mxCell>
        <mxCell id="qwA8c6eQVYafrWKvCbjQ-0" value="Stop d&lt;span style=&quot;background-color: initial; font-size: 11px;&quot;&gt;ivision.s&lt;/span&gt;" style="ellipse;whiteSpace=wrap;html=1;fontSize=11;" parent="WIyWlLk6GJQsqaUBKTNV-1" vertex="1">
          <mxGeometry x="660" y="360" width="120" height="80" as="geometry" />
        </mxCell>
        <mxCell id="qwA8c6eQVYafrWKvCbjQ-6" value="If the dividend is greater than the divisor then the division will result in a quotient of zero and a modulo equal to the dividend." style="shape=callout;whiteSpace=wrap;html=1;perimeter=calloutPerimeter;fontSize=11;position2=0.48;size=31;position=0.31;" parent="WIyWlLk6GJQsqaUBKTNV-1" vertex="1">
          <mxGeometry x="66" y="300" width="174" height="101" as="geometry" />
        </mxCell>
        <mxCell id="0xpmapLkxp66fmtdaelJ-2" value="Error, division by zero." style="shape=callout;whiteSpace=wrap;html=1;perimeter=calloutPerimeter;position2=0.5;size=29;position=0.38;" parent="WIyWlLk6GJQsqaUBKTNV-1" vertex="1">
          <mxGeometry x="596" y="314" width="80" height="80" as="geometry" />
        </mxCell>
      </root>
    </mxGraphModel>
  </diagram>
</mxfile>
